<?xml version="1.0" standalone="no"?>
<!DOCTYPE svg PUBLIC "-//W3C//DTD SVG 20010904//EN"
 "http://www.w3.org/TR/2001/REC-SVG-20010904/DTD/svg10.dtd">
<svg version="1.0" xmlns="http://www.w3.org/2000/svg"
 width="295.000000pt" height="82.000000pt" viewBox="0 0 295.000000 82.000000"
 preserveAspectRatio="xMidYMid meet">

<g transform="translate(0.000000,82.000000) scale(0.100000,-0.100000)"
fill="#000000" stroke="none">
<path d="M238 668 c-49 -13 -126 -82 -149 -133 -24 -52 -24 -138 0 -190 21
-47 88 -111 140 -132 48 -21 156 -20 205 1 99 41 156 125 156 226 0 69 -37
149 -86 186 -63 49 -175 66 -266 42z m107 -124 c46 -49 73 -192 43 -222 -18
-18 -53 -15 -72 7 -44 49 -73 200 -44 229 19 19 47 14 73 -14z"/>
<path d="M2265 671 c-11 -5 -29 -18 -39 -30 -41 -45 19 -92 99 -77 70 14 112
81 66 106 -23 12 -97 12 -126 1z"/>
<path d="M1100 604 c-25 -14 -64 -41 -86 -59 -41 -34 -42 -34 -59 -15 -20 23
-93 28 -113 8 -8 -8 -15 -8 -27 2 -35 29 -186 -13 -193 -53 -2 -11 6 -28 17
-39 19 -17 21 -26 15 -86 -5 -46 -13 -73 -25 -85 -28 -27 -23 -44 21 -67 31
-17 167 -18 198 -1 22 12 32 61 13 61 -25 0 -41 34 -41 86 0 57 4 62 34 39 42
-32 121 -2 128 48 2 14 11 23 26 25 21 3 22 1 22 -90 0 -101 9 -130 52 -161
53 -40 167 -19 203 37 23 35 10 54 -38 58 l-42 3 -3 78 -3 77 46 0 46 0 -3 38
c-3 36 -4 37 -45 40 -40 3 -42 4 -45 40 -3 31 -7 37 -28 40 -14 1 -45 -9 -70
-24z"/>
<path d="M1405 521 c-80 -46 -119 -145 -84 -214 64 -124 223 -150 324 -53 68
65 81 148 35 223 -46 76 -181 98 -275 44z m115 -83 c14 -23 20 -51 20 -90 0
-100 -38 -86 -59 22 -9 43 -9 65 -1 80 14 26 17 26 40 -12z"/>
<path d="M1816 530 c-84 -33 -109 -70 -61 -92 25 -11 25 -13 25 -133 0 -110
-2 -124 -20 -140 -48 -44 2 -84 105 -84 95 0 164 43 120 74 -62 44 -59 54 14
48 73 -7 115 15 150 78 30 52 33 148 7 197 -33 64 -120 91 -186 57 -25 -13
-29 -13 -34 0 -8 21 -60 18 -120 -5z m180 -115 c19 -46 18 -78 -4 -106 -32
-39 -52 -20 -52 50 0 33 3 66 6 75 10 27 34 18 50 -19z"/>
<path d="M2282 535 c-74 -23 -89 -48 -52 -85 16 -16 20 -33 20 -85 0 -52 -4
-69 -20 -85 -48 -48 -3 -83 103 -83 40 0 82 5 95 12 26 14 30 52 7 71 -12 10
-15 39 -15 141 l0 129 -47 -1 c-27 0 -67 -6 -91 -14z"/>
<path d="M2550 528 c-35 -18 -46 -29 -48 -52 -6 -54 49 -62 102 -15 40 34 56
31 56 -10 0 -26 -3 -29 -49 -34 -87 -10 -141 -55 -141 -117 0 -32 25 -74 54
-89 34 -19 100 -17 132 3 23 16 27 16 43 2 32 -29 89 -25 130 10 36 30 39 54
11 72 -18 11 -20 23 -20 100 0 85 -1 89 -31 118 -28 26 -37 29 -112 32 -70 3
-89 0 -127 -20z m108 -210 c-2 -18 -7 -33 -13 -33 -5 0 -11 15 -13 33 -3 24 1
32 13 32 12 0 16 -8 13 -32z"/>
</g>
</svg>
